<?xml version="1.0" encoding="UTF-8" standalone="no"?>
<!-- Created with Inkscape (http://www.inkscape.org/) -->

<svg
   width="297mm"
   height="210mm"
   viewBox="0 0 297 210"
   version="1.1"
   id="svg1"
   inkscape:version="1.4.2 (f4327f4, 2025-05-13)"
   sodipodi:docname="word_logo_vec.svg"
   xmlns:inkscape="http://www.inkscape.org/namespaces/inkscape"
   xmlns:sodipodi="http://sodipodi.sourceforge.net/DTD/sodipodi-0.dtd"
   xmlns="http://www.w3.org/2000/svg"
   xmlns:svg="http://www.w3.org/2000/svg">
  <defs
     id="defs1" />
  <rect
     style="fill:none;fill-rule:evenodd;stroke-width:0.3"
     id="rect13"
     width="297.36801"
     height="210.14497"
     x="-0.36802974"
     y="-0.36802974" />
  <g
     inkscape:groupmode="layer"
     id="layer5"
     inkscape:label="Capa 2" />
  <g
     inkscape:label="Capa 1"
     inkscape:groupmode="layer"
     id="layer1"
     transform="translate(79.985725,-55.478994)">
    <path
       style="fill:#000000;stroke-width:0.205477"
       d="m -67.91719,210.58292 c 0,-2.39715 0,1.98819 0,0 z M 43.841514,196.38897 c -2.20739,-0.0877 -6.838275,-0.26562 -10.290859,-0.39537 -7.61276,-0.28608 -10.418829,-0.50121 -10.814549,-0.82909 -0.383303,-0.31758 -0.380681,-0.88363 0.0075,-1.63318 0.3554,-0.68614 2.512897,-3.27209 4.158401,-4.98422 0.731998,-0.76163 1.035211,-1.20911 0.855445,-1.26245 -0.15313,-0.0454 -1.575089,-0.38116 -3.159881,-0.74603 -3.243741,-0.74683 -4.741987,-1.26259 -7.065422,-2.43221 -4.565273,-2.29818 -6.762538,-4.14003 -14.2366524,-11.93377 -2.2073894,-2.30178 -4.841342,-4.91671 -5.8532271,-5.81095 -6.559585,-5.79691 -15.2303215,-8.96382 -27.7978805,-10.15294 -2.817421,-0.26658 -7.186851,-0.3499 -22.434071,-0.42775 -12.603205,-0.0644 -19.021213,-0.16779 -19.192452,-0.3093 -0.360091,-0.29757 -0.369676,-9.21437 -0.01029,-9.57317 0.18828,-0.18797 4.480777,-0.24675 18.06046,-0.2473 9.797411,-4.1e-4 19.295359,-0.093 21.10655,-0.20582 11.396518,-0.70979 20.401326,-3.41094 27.4998915,-8.24907 2.308965,-1.57371 5.59042234,-4.54405 8.9532437,-8.10437 6.1494862,-6.51067 10.2691838,-9.9428 13.8313148,-11.5229 2.719117,-1.20615 8.341611,-2.53328 10.73244,-2.53328 h 0.869157 l -3.204493,-3.33902 c -2.938762,-3.06213 -3.204878,-3.40167 -3.209159,-4.09464 -0.0075,-1.20849 0.588625,-1.53063 3.130214,-1.69164 3.34206,-0.21173 18.391489,-0.91407 22.695174,-1.05917 4.411246,-0.14872 4.710705,-0.0761 4.676245,1.13395 -0.01085,0.381 -0.725871,2.13838 -1.663601,4.08881 -1.694743,3.52498 -4.280936,9.14125 -6.448009,14.00272 -3.659729,8.21001 -3.425758,7.80816 -4.546074,7.80816 -0.688479,0 -0.930756,-0.3344 -2.530502,-3.49262 -1.561317,-3.08236 -2.785962,-4.55637 -3.984342,-4.79565 -1.470557,-0.29362 -4.68206,-0.38249 -5.879617,-0.16269 -2.476429,0.45453 -5.549136,2.38615 -8.254512,5.1891 -2.21362,2.29345 -3.734979,4.87361 -5.012844,8.50154 -2.008438,5.70206 -2.596659,14.56319 -1.432207,21.57516 0.346868,2.08872 1.42806,5.65558 2.345509,7.73784 2.557092,5.80361 7.202388,10.10787 12.427422,11.51504 1.758291,0.47354 5.815668,0.59221 6.564685,0.192 0.465785,-0.24886 1.574372,-1.93684 2.919283,-4.44502 1.658912,-3.09375 2.251189,-3.95575 2.815079,-4.09705 0.963012,-0.2413 1.343228,0.26934 2.838432,3.81207 1.455775,3.44932 3.712416,8.5682 5.787145,13.12734 3.048462,6.69889 3.802977,8.46657 3.802977,8.90962 0,0.26326 -0.169373,0.63169 -0.376386,0.81873 -0.423993,0.38307 -1.613904,0.39933 -8.67957,0.11859 z m 8.191524,-0.43606 c 0.135839,-0.13561 0.246982,-0.43921 0.246982,-0.67465 0,-0.40754 -2.174965,-5.43865 -2.444273,-5.65406 -0.07064,-0.0565 -0.157985,-0.24144 -0.194092,-0.41095 -0.0361,-0.16952 -0.486581,-1.23287 -1.001058,-2.363 -2.151583,-4.7263 -3.693198,-8.20499 -5.008257,-11.30128 -2.037815,-4.79799 -2.257703,-5.25145 -2.612374,-5.38733 -0.550619,-0.21094 -0.863606,0.16885 -2.407719,2.9216 -0.824103,1.46917 -1.708925,3.04108 -1.966268,3.49313 -1.213337,2.13136 -1.644616,2.36098 -4.433135,2.36029 -4.623938,-0.002 -8.703023,-1.75074 -12.153334,-5.21282 -5.16135,-5.17894 -7.700441,-12.71164 -7.706155,-22.86178 -0.0049,-8.68192 1.569534,-14.94367 5.061064,-20.12872 1.229086,-1.82524 3.494973,-4.1176 5.209382,-5.27025 0.57521,-0.38673 0.99993,-0.76438 0.943825,-0.83923 -0.0561,-0.0748 -0.0474,-0.097 0.01935,-0.0492 0.06675,0.0478 0.735809,-0.22734 1.486804,-0.61142 1.912488,-0.9781 3.164097,-1.18974 6.329634,-1.07027 3.192314,0.12048 3.839743,0.35826 5.026211,1.84594 0.44938,0.56347 1.416871,2.20214 2.149979,3.6415 0.733109,1.43935 1.475977,2.73553 1.650818,2.88039 0.650652,0.53911 1.150249,-0.20697 3.097886,-4.62626 2.424906,-5.50223 6.987839,-15.45934 8.20347,-17.90138 1.136864,-2.28381 1.295394,-2.8415 0.931991,-3.27865 -0.235724,-0.28356 -0.632964,-0.31141 -2.852972,-0.20003 -1.418512,0.0712 -7.487853,0.35774 -13.487425,0.63681 -5.999569,0.27907 -11.220804,0.55126 -11.602743,0.60487 -0.771574,0.10829 -1.466646,0.63104 -1.466646,1.10304 0,0.33961 1.003076,1.464 4.355525,4.88226 1.226844,1.25093 2.230624,2.41714 2.230624,2.59158 0,0.24929 -0.365207,0.34675 -1.706401,0.4554 -3.963621,0.32107 -9.277408,1.85126 -11.906098,3.42855 -3.753979,2.25248 -6.5886791,4.75921 -13.3599616,11.8142 -3.29122196,3.42913 -4.3160727,4.37272 -6.5818899,6.06 -5.434181,4.04666 -12.4452585,6.85418 -20.4730605,8.19824 -5.251631,0.87926 -5.42561,0.88562 -26.601467,0.97315 l -20.633171,0.0853 -0.01264,1.3745 c -0.0069,0.75598 -0.05864,2.64193 -0.114867,4.19102 -0.06466,1.78129 -0.0224,2.96544 0.114967,3.22169 0.213316,0.39792 0.569689,0.40681 19.92477,0.49651 21.302744,0.0987 22.395065,0.14781 28.517133,1.28114 7.314509,1.35408 12.561744,3.33082 17.4321255,6.56705 2.709588,1.80045 5.38705064,4.25201 10.1532083,9.29658 5.8379472,6.17897 7.8445312,7.92312 11.7663212,10.22742 3.060231,1.79808 6.210539,2.88013 11.988851,4.11783 0.669006,0.1433 0.568579,0.47518 -0.493985,1.63246 -2.087972,2.27406 -4.417756,5.15919 -4.53151,5.61168 -0.06637,0.264 -0.03044,0.57007 0.07985,0.68017 0.251822,0.25141 4.244764,0.50142 12.818156,0.80259 3.678981,0.12923 8.356177,0.3057 10.393768,0.39215 2.037588,0.0864 4.07981,0.17104 4.538268,0.18799 0.458458,0.0169 0.9447,-0.0801 1.080539,-0.21575 z M 46.178787,166.2061 c -2.179959,-1.24823 -3.524102,-3.7488 -4.346547,-8.08605 -0.510715,-2.69331 -0.503073,-12.30738 0.01204,-15.13929 1.171251,-6.43922 3.805547,-9.37986 7.735417,-8.63497 1.404329,0.26618 2.210115,0.76675 3.496864,2.17234 1.758102,1.92047 2.552546,4.68171 2.896577,10.06758 0.320073,5.01078 -0.03834,10.24062 -0.942858,13.75792 -0.747292,2.9059 -2.468311,5.50191 -4.098213,6.18181 -0.386502,0.16122 -1.364658,0.28988 -2.195776,0.28881 -1.281209,-0.002 -1.652478,-0.0899 -2.557496,-0.60815 z m 4.615617,-0.33073 c 2.19558,-1.09229 3.524503,-3.77309 4.319077,-8.71274 0.43419,-2.69925 0.492177,-11.59476 0.0911,-13.97639 -0.65715,-3.90228 -1.911608,-6.21268 -4.211146,-7.7559 -1.107146,-0.74301 -3.243021,-0.88587 -4.403984,-0.29457 -1.630707,0.83056 -2.998166,2.97677 -3.772233,5.9205 -0.668154,2.54094 -1.095909,7.66105 -0.947786,11.34474 0.203741,5.0669 0.648113,7.47714 1.845177,10.00807 0.869621,1.83862 1.71968,2.80285 3.057921,3.46862 1.395818,0.69442 2.622797,0.69371 4.02187,-0.002 z m -3.327717,-2.56206 c -1.279638,-1.51825 -1.664035,-5.24179 -1.504099,-14.5697 0.113346,-6.61079 0.318012,-8.6305 1.051706,-10.37858 0.464683,-1.10714 0.905723,-1.5486 1.547118,-1.5486 2.424817,0 3.230171,4.13413 3.053445,15.67429 -0.07635,4.98529 -0.167154,6.51283 -0.460732,7.75017 -0.625398,2.63584 -1.33579,3.69859 -2.472311,3.69859 -0.513448,0 -0.8209,-0.15842 -1.215127,-0.62617 z m 1.904852,-0.26974 c 0.250991,-0.26672 0.628075,-0.9371 0.837966,-1.48971 0.737018,-1.94048 0.916032,-4.02366 0.916231,-10.66221 2.06e-4,-8.60133 -0.421583,-11.77602 -1.739592,-13.09186 -0.494502,-0.49368 -0.663255,-0.55575 -1.008926,-0.37106 -0.957692,0.5117 -1.572626,2.8485 -1.861747,7.07481 -0.402467,5.88317 -0.126297,14.17887 0.553323,16.621 0.306383,1.10095 1.204058,2.40399 1.656123,2.40399 0.104649,0 0.395631,-0.21823 0.646622,-0.48496 z m 7.688317,3.5309 c -0.430519,-0.42981 -0.284043,-0.85515 0.657031,-1.90794 0.499888,-0.55923 0.962977,-1.28678 1.029086,-1.61677 0.06611,-0.32999 0.120196,-6.22781 0.120196,-13.10627 v -12.50628 l -1.041186,-1.14781 c -1.613206,-1.77842 -1.54789,-1.82578 2.609773,-1.89206 2.656819,-0.0424 3.570159,0.008 3.729182,0.20548 0.15515,0.1927 3.289174,12.42304 4.437281,17.31622 0.05304,0.22603 0.107172,-2.93992 0.120296,-7.03544 l 0.02384,-7.44639 -1.041183,-1.14781 c -1.611782,-1.77685 -1.545072,-1.82567 2.586401,-1.89253 2.968307,-0.048 3.530494,-0.008 3.729197,0.26289 0.209055,0.28543 0.246837,0.28598 0.354762,0.005 0.105223,-0.27375 1.050192,-0.31426 7.330851,-0.31426 h 7.210065 v 4.30165 c 0,2.36591 -0.09033,4.53884 -0.20073,4.82873 -0.138617,0.36399 -0.353769,0.52707 -0.695383,0.52707 -0.553419,0 -0.495756,0.12097 -1.66501,-3.49312 -0.942679,-2.91376 -1.191877,-3.33359 -1.928288,-3.24868 l -0.553116,0.0638 v 13.15588 13.15589 l 0.786619,1.06973 c 0.492478,0.66974 0.761837,1.244 0.720359,1.53577 -0.06578,0.46277 -0.09278,0.46643 -3.858766,0.52219 -3.858976,0.0572 -4.119264,0.0115 -4.128296,-0.72336 -0.0016,-0.14094 0.307638,-0.60327 0.6875,-1.02739 0.379863,-0.42412 0.796645,-0.9731 0.926184,-1.21995 0.169634,-0.32327 0.235514,-4.10599 0.235514,-13.52256 V 137.2024 l -0.752805,0.0638 -0.752806,0.0638 -0.677179,1.95204 c -0.372446,1.07362 -0.844088,2.50683 -1.048096,3.1849 -0.346157,1.15057 -0.412123,1.23286 -0.988366,1.23286 h -0.61745 l -0.05576,-4.30586 -0.05576,-4.30588 -0.973332,1.01823 -0.973323,1.01823 -0.102909,14.64788 c -0.08937,12.72095 -0.143525,14.67349 -0.411633,14.84261 -0.460816,0.29069 -3.359516,0.24761 -3.755097,-0.0558 -0.218133,-0.1673 -0.913624,-2.549 -1.995088,-6.83213 -2.187726,-8.66448 -3.682624,-14.25131 -3.711208,-13.86975 -0.0127,0.16952 -0.01733,4.19175 -0.0103,8.93829 0.01229,8.29521 0.02867,8.64999 0.422224,9.14376 1.200168,1.50578 1.512178,2.09093 1.296853,2.43217 -0.183791,0.29125 -0.700015,0.35009 -3.492005,0.39802 -2.374062,0.0408 -3.345685,-0.0131 -3.528184,-0.19521 z m 27.586111,-0.34091 c 0.324917,-0.12836 0.302147,-0.21502 -0.225683,-0.85883 -0.322883,-0.39384 -0.693884,-0.91804 -0.824463,-1.16489 -0.172345,-0.32582 -0.237409,-4.14083 -0.237409,-13.92111 v -13.4723 h 1.024346 c 0.839809,0 1.076178,0.0833 1.312088,0.46232 0.3789,0.60877 1.248313,2.96486 1.78394,4.83443 0.235639,0.82248 0.516367,1.44116 0.623842,1.37485 0.113253,-0.0699 0.195402,-1.92942 0.195402,-4.42347 v -4.30291 h -6.791969 -6.79197 v 4.20017 c 0,2.31785 0.08439,4.25223 0.188296,4.31635 0.194494,0.12001 0.429364,-0.46403 1.31775,-3.27683 0.285551,-0.90411 0.668652,-1.99509 0.851349,-2.42442 l 0.332163,-0.78058 1.176485,0.0614 1.176476,0.0614 0.06003,12.73962 c 0.03301,7.00678 0.0023,13.1424 -0.06733,13.63469 -0.09253,0.65045 -0.347991,1.13406 -0.934718,1.76953 -0.444065,0.48096 -0.807386,0.93001 -0.807386,0.99789 0,0.1122 1.754305,0.21213 5.042519,0.28723 0.679199,0.0155 1.397523,-0.036 1.59628,-0.11458 z m -21.046003,-0.20231 c 0,-0.0927 -0.32252,-0.54466 -0.716708,-1.00442 -0.394191,-0.45977 -0.810971,-1.08346 -0.926179,-1.38597 -0.131824,-0.34616 -0.209468,-4.3152 -0.209468,-10.70781 0,-8.67978 0.0429,-10.15777 0.294856,-10.15777 0.34027,0 0.328551,-0.0342 1.056061,3.08217 0.3034,1.29964 1.130327,4.53592 1.837612,7.19172 0.707285,2.6558 1.72887,6.6318 2.270187,8.83554 0.541315,2.20375 1.085904,4.07475 1.210185,4.15778 0.124288,0.083 0.897449,0.15237 1.718145,0.15411 l 1.492184,0.003 0.0016,-14.12659 c 6.21e-4,-8.70946 0.07938,-14.40238 0.205149,-14.84577 0.112204,-0.39554 0.528467,-1.03267 0.925034,-1.41583 0.396567,-0.38316 0.721027,-0.77614 0.721027,-0.87328 0,-0.0971 -1.389268,-0.17662 -3.08726,-0.17662 -1.697993,0 -3.087257,0.0598 -3.087257,0.1328 0,0.073 0.41678,0.57763 0.926173,1.12132 0.509401,0.54369 0.934734,1.10807 0.945179,1.25418 0.01048,0.14611 0.03363,4.12607 0.05149,8.84435 0.02943,7.78406 0.0016,8.5787 -0.300951,8.5787 -0.245641,-1e-5 -0.397849,-0.33804 -0.578247,-1.28424 -0.370326,-1.94233 -4.353958,-17.87557 -4.572253,-18.28752 -0.167992,-0.31702 -0.541538,-0.35959 -3.15551,-0.35959 -1.630728,0 -3.012899,0.0774 -3.071491,0.17209 -0.0586,0.0947 0.261249,0.53062 0.710758,0.96883 0.449509,0.43821 0.908246,1.12361 1.019413,1.5231 0.248978,0.89473 0.260472,22.89581 0.01307,25.02703 -0.157269,1.35481 -0.25146,1.57732 -1.020049,2.40977 -0.465728,0.50442 -0.84678,1.01166 -0.84678,1.1272 0,0.13377 1.121316,0.21007 3.087259,0.21007 1.697991,0 3.087257,-0.0758 3.087257,-0.16849 z m -1.300123,-21.23971 c -0.0657,-0.16392 -0.114474,-0.11524 -0.124349,0.12414 -0.0089,0.2166 0.03971,0.33796 0.108099,0.26968 0.06839,-0.0683 0.0757,-0.2455 0.01626,-0.39382 z m 27.142825,21.67521 c -0.08098,-0.21065 0.03371,-0.55744 0.288852,-0.87327 0.232734,-0.28813 0.650619,-0.8475 0.928622,-1.24304 l 0.505463,-0.71917 0.138058,-12.96761 0.138058,-12.9676 -1.172974,-1.2738 c -1.797212,-1.9517 -1.787412,-1.95838 2.970939,-2.02481 3.540387,-0.0494 4.039428,-0.016 4.26007,0.28523 0.302039,0.41239 0.119132,0.81244 -0.872449,1.9082 l -0.692704,0.76547 -0.02175,11.69912 c -0.01196,6.43451 -0.01677,12.35941 -0.01064,13.16645 0.01064,1.40223 0.04761,1.51148 0.834365,2.46197 0.452794,0.54704 0.823267,1.13964 0.823267,1.31688 0,0.73573 -0.414111,0.8154 -4.238395,0.8154 -3.334742,0 -3.759127,-0.0382 -3.87874,-0.34942 z m 4.772601,-0.26421 c 2.978348,-0.003 3.198408,-0.108 2.19298,-1.04574 -1.152682,-1.07508 -1.112438,-0.54144 -1.112438,-14.75186 v -13.144 l 0.919186,-1.07508 c 0.505557,-0.59129 0.870563,-1.15363 0.811121,-1.24964 -0.136162,-0.21996 -7.287368,-0.23245 -7.287368,-0.0127 0,0.089 0.46501,0.61909 1.033348,1.17797 l 1.033355,1.01613 -0.05568,13.49102 -0.05576,13.49101 -0.874314,1.03507 c -0.734633,0.86971 -0.816837,1.05078 -0.514542,1.13336 0.197872,0.0541 0.545008,0.062 0.771405,0.0178 0.226397,-0.0443 1.638823,-0.0817 3.13871,-0.0833 z m 4.305013,0.47665 c -0.403502,-0.40284 -0.07853,-1.24397 0.840423,-2.17528 l 0.977627,-0.99078 0.0703,-9.08469 c 0.0386,-4.99657 0.005,-10.8684 -0.0742,-13.04848 l -0.1445,-3.96379 -1.022349,-1.11676 c -1.624921,-1.775 -1.540426,-1.83552 2.655849,-1.90215 3.36153,-0.0534 3.5489,-0.0356 3.75895,0.35619 0.16339,0.30481 3.60515,13.92053 4.39102,17.37107 0.0515,0.22602 0.10435,-2.94171 0.11747,-7.0394 l 0.0239,-7.45035 -1.132,-1.2293 c -0.62259,-0.67611 -1.13057,-1.29944 -1.12884,-1.38519 0.0124,-0.61603 0.38918,-0.67922 3.71697,-0.62348 3.22942,0.0541 3.38327,0.0755 3.44092,0.47777 0.034,0.23714 -0.25424,0.83248 -0.65976,1.36271 l -0.72015,0.94158 -0.0606,14.52711 c -0.0588,14.10632 -0.0722,14.53554 -0.4601,14.81865 -0.50472,0.36833 -2.78463,0.38876 -3.27694,0.0294 -0.23986,-0.17511 -0.79202,-1.86439 -1.66228,-5.08558 -0.71671,-2.65286 -1.90762,-6.99631 -2.64645,-9.65211 -0.73883,-2.6558 -1.48404,-5.42975 -1.65602,-6.16433 -0.29284,-1.25085 -0.31031,-0.7282 -0.27535,8.23538 l 0.0374,9.57098 0.87472,1.15641 c 1.53381,2.02774 1.31812,2.20143 -2.73394,2.20143 -1.71308,0 -3.176443,-0.0617 -3.251906,-0.13699 z m 6.18552,-0.61424 c 0.0434,-0.13064 -0.20038,-0.5552 -0.54185,-0.94348 -0.34147,-0.38827 -0.71676,-0.95777 -0.83397,-1.26556 -0.13661,-0.35873 -0.21312,-4.24279 -0.21312,-10.82012 0,-8.9248 0.0397,-10.26051 0.30481,-10.26051 0.16764,0 0.36405,0.25428 0.43647,0.56507 0.87954,3.77469 6.02161,22.48872 6.24167,22.71588 0.0877,0.0906 0.75216,0.13682 1.47646,0.10274 l 1.3169,-0.062 0.10291,-14.60882 c 0.10998,-15.61303 0.0428,-14.63123 1.08054,-15.78659 0.76671,-0.85359 0.53822,-0.93994 -2.48695,-0.93994 -1.56593,0 -2.90829,0.061 -2.98302,0.13565 -0.0747,0.0746 0.3266,0.62387 0.89187,1.22057 l 1.02776,1.08491 0.0367,8.33414 c 0.0202,4.58379 0.0433,8.54093 0.0515,8.79366 0.009,0.26654 -0.12392,0.48617 -0.31539,0.52298 -0.25412,0.0489 -0.39049,-0.23419 -0.59263,-1.23005 -0.72581,-3.57593 -4.15962,-17.51193 -4.53362,-18.39954 -0.18974,-0.4503 -0.27523,-0.46232 -3.28647,-0.46232 -1.70042,0 -3.091672,0.0564 -3.091672,0.12529 0,0.0689 0.463092,0.63116 1.029084,1.24943 l 1.029088,1.12412 v 13.24906 13.24905 l -1.07139,1.13097 c -0.863689,0.91172 -1.013319,1.16828 -0.771817,1.32341 0.439887,0.28258 5.597477,0.14854 5.696127,-0.14803 z m 16.93325,0.57131 c -3.15552,-1.0321 -4.82269,-4.32588 -5.4543,-10.7759 -0.2642,-2.69805 -0.14661,-9.58902 0.2034,-11.91912 0.60053,-3.99785 2.09869,-7.41377 3.88174,-8.85069 0.72838,-0.58699 0.934,-0.64273 2.61329,-0.70852 1.59788,-0.0626 1.96137,-0.008 2.94704,0.44248 l 1.12433,0.5139 0.72799,-0.49386 c 0.85053,-0.577 1.21682,-0.61469 1.66129,-0.17096 0.27556,0.27511 0.32342,1.03317 0.32342,5.12226 0,4.0891 -0.0478,4.84716 -0.32342,5.12227 -0.38961,0.38896 -0.92183,0.4147 -1.36532,0.0661 -0.17967,-0.14126 -0.62229,-1.1815 -0.98358,-2.31162 -0.75986,-2.37676 -1.38135,-3.60541 -2.3672,-4.67976 -0.83034,-0.90485 -1.18923,-0.94987 -1.85496,-0.23272 -1.15764,1.24705 -1.74315,4.51473 -1.89273,10.56312 -0.12345,4.99161 0.15556,10.13389 0.66819,12.31464 0.74605,3.17384 2.33963,3.80712 3.54034,1.40691 0.42903,-0.85764 0.46234,-1.19703 0.46234,-4.71163 v -3.78741 l -0.93523,-0.91607 c -0.75846,-0.7429 -0.92381,-1.03258 -0.87474,-1.5325 l 0.0605,-0.61643 3.79253,-0.0562 c 3.9554,-0.0585 4.12087,-0.0252 4.12829,0.83128 0.002,0.2003 -0.36732,0.76543 -0.82013,1.25585 l -0.82326,0.89166 v 6.49371 c 0,6.20985 -0.0175,6.50301 -0.39809,6.70642 -0.6234,0.33307 -1.28252,0.2421 -2.16436,-0.29874 l -0.81304,-0.49861 -0.70994,0.43805 c -0.77367,0.47737 -3.37699,0.71178 -4.35441,0.39209 z m 3.94571,-0.84105 c 1.01091,-0.52604 1.62243,-0.52776 2.28631,-0.006 0.28781,0.22602 0.76339,0.41096 1.05683,0.41096 h 0.53354 v -6.47714 -6.47714 l 0.84651,-0.91685 c 1.33871,-1.44992 1.1824,-1.5397 -2.68027,-1.5397 -2.08387,0 -3.3365,0.0794 -3.42157,0.21679 -0.0738,0.11923 0.33749,0.71471 0.91402,1.3233 l 1.04822,1.10652 -0.002,3.76227 c -0.002,3.5398 -0.0313,3.82501 -0.49689,4.82341 -0.69505,1.49031 -1.18067,1.91828 -2.17671,1.91828 -1.38495,0 -2.02453,-0.93537 -2.6096,-3.81661 -0.3194,-1.57286 -0.3726,-2.91665 -0.37358,-9.43669 0,-6.54458 0.051,-7.86006 0.37383,-9.45199 0.64437,-3.17776 1.40762,-4.41777 2.71918,-4.41777 1.35794,0 2.64355,1.83251 3.81685,5.44053 0.59899,1.84192 0.81039,2.26489 1.132,2.26489 0.37716,0 0.39803,-0.22122 0.45072,-4.77736 0.0601,-5.20082 0.0767,-5.13407 -1.08433,-4.3664 -0.79304,0.52433 -0.93669,0.51716 -2.55016,-0.12726 -1.82689,-0.72967 -3.59596,-0.62578 -4.72176,0.27727 -1.55945,1.25092 -3.00092,4.35306 -3.67312,7.90482 -0.28615,1.51196 -0.36207,3.02605 -0.36378,7.25327 -0.002,4.68242 0.0548,5.64116 0.45886,7.76067 0.25358,1.33003 0.70989,3.04064 1.01401,3.80133 1.36647,3.41781 4.71189,4.99938 7.5029,3.54703 z m 6.65123,0.73526 c -0.45945,-0.33541 -0.33162,-0.69243 0.76935,-2.14867 l 0.67534,-0.89328 0.0626,-13.11277 0.0626,-13.11277 -0.95534,-0.91394 c -0.71023,-0.67944 -0.93753,-1.03987 -0.88586,-1.40477 l 0.0695,-0.49083 h 6.68905 6.68907 l 0.1074,4.62324 c 0.0591,2.54279 0.0722,4.782 0.0292,4.97603 -0.0906,0.40895 -0.65359,0.6369 -1.12598,0.45593 -0.1921,-0.0736 -0.58189,-0.91569 -0.94495,-2.04145 -0.77185,-2.39329 -1.7788,-4.64574 -2.22762,-4.98296 -0.18802,-0.14126 -0.86771,-0.25685 -1.51047,-0.25685 h -1.16864 l -0.12758,0.77055 c -0.16491,0.99616 -0.17115,10.3955 -0.007,10.82214 0.1668,0.43393 0.96873,0.41356 1.36078,-0.0346 0.17303,-0.19777 0.41905,-0.68322 0.5467,-1.07876 0.36548,-1.13253 1.01103,-2.05478 1.43825,-2.05478 0.80532,0 0.86141,0.37464 0.80392,5.36812 l -0.0553,4.80303 h -0.61745 c -0.56281,0 -0.70597,-0.15911 -1.61765,-1.79793 -1.04029,-1.86999 -1.64735,-2.30039 -1.88377,-1.3356 -0.0624,0.25427 -0.0872,2.77395 -0.0554,5.59927 l 0.0579,5.13694 h 1.53543 c 1.51057,0 1.54294,-0.0111 1.99791,-0.68511 0.25434,-0.37681 0.8382,-1.67132 1.29744,-2.87668 1.06512,-2.7955 1.27725,-3.20056 1.72088,-3.28586 0.89481,-0.17204 0.96067,0.17127 0.96067,5.0067 0,2.51971 -0.0562,4.72755 -0.12491,4.90631 -0.1103,0.28691 -0.88985,0.32502 -6.64973,0.32502 -5.24648,0 -6.60146,-0.056 -6.91618,-0.28571 z m 13.07337,-4.85124 c 0,-2.5042 -0.0817,-4.52051 -0.18318,-4.52051 -0.10075,0 -0.57886,0.99401 -1.06247,2.20889 -1.88043,4.72394 -1.96603,4.81738 -4.33728,4.73471 l -1.72359,-0.0601 -0.0545,-6.11296 -0.0545,-6.11296 h 0.92078 0.92079 l 0.98609,1.81594 c 0.60764,1.11901 1.08784,1.78173 1.25126,1.72681 0.20502,-0.0689 0.25748,-0.93518 0.23128,-3.81935 -0.0525,-5.77686 -0.21988,-6.28778 -1.25202,-3.82083 -0.66804,1.59675 -1.2086,2.08567 -2.21287,2.00157 l -0.73628,-0.0617 -0.0544,-6.42118 -0.0544,-6.42117 h 1.84124 c 1.77489,0 1.85563,0.0204 2.23958,0.56506 0.43709,0.62008 1.64676,3.58533 2.22132,5.44516 0.20614,0.66723 0.48474,1.18149 0.64008,1.18149 0.22298,0 0.26459,-0.86595 0.2197,-4.57187 l -0.0554,-4.57188 -6.22597,-0.0544 c -4.91092,-0.0429 -6.22589,4.1e-4 -6.22562,0.20548 1.8e-4,0.14292 0.37066,0.60772 0.82326,1.03289 l 0.82294,0.77303 v 13.36708 c 0,9.63943 -0.0657,13.49222 -0.2356,13.81588 -0.12957,0.24685 -0.50005,0.78575 -0.82327,1.19756 -0.32322,0.4118 -0.58768,0.80478 -0.58768,0.87327 0,0.0685 2.87116,0.12455 6.38035,0.12455 h 6.38033 z m 1.69799,5.00341 c -0.53955,-0.2227 -0.25449,-1.1199 0.66891,-2.10546 l 0.92616,-0.98853 v -13.11603 -13.11605 l -0.80626,-0.95463 c -0.44347,-0.52504 -0.82492,-1.08578 -0.84766,-1.24609 -0.11328,-0.79809 -0.0825,-0.80515 3.50629,-0.80515 1.92438,0 3.50099,0.0231 3.50358,0.0514 0.002,0.0282 1.01822,4.07359 2.25701,8.98965 l 2.25232,8.93828 0.007,-7.36839 0.007,-7.36839 -1.02907,-1.12413 c -1.13712,-1.24213 -1.33002,-1.98995 -0.56602,-2.19436 0.25472,-0.0682 1.77628,-0.12516 3.38129,-0.12671 2.38113,-0.002 2.97772,0.0566 3.24163,0.32009 0.45805,0.45731 0.42752,0.5492 -0.57059,1.71658 l -0.89401,1.04564 -0.13438,3.2348 c -0.0739,1.77914 -0.13471,8.34023 -0.13508,14.58022 0,12.97473 0.20372,11.77083 -1.99953,11.77083 -1.48988,0 -2.03345,-0.34965 -2.32765,-1.49724 -1.17811,-4.59536 -5.19141,-19.57127 -5.26584,-19.64985 -0.0446,-0.0471 -0.0811,3.94141 -0.0811,8.86331 v 8.94892 l 0.94199,1.14234 c 0.64087,0.77718 0.92048,1.29377 0.87472,1.61605 -0.0668,0.47028 -0.0912,0.47401 -3.36034,0.51142 -1.81118,0.0207 -3.40883,-0.0101 -3.55035,-0.0685 z m 5.88309,-1.32279 c -0.37743,-0.46194 -0.81567,-1.02033 -0.97392,-1.24088 -0.23392,-0.32603 -0.30674,-2.34323 -0.38955,-10.79032 -0.0979,-9.98819 -0.0873,-10.38652 0.27495,-10.31688 0.26599,0.0511 0.4582,0.40467 0.6536,1.20222 0.15226,0.62137 1.20665,4.64343 2.34313,8.93792 1.13647,4.29448 2.34686,8.8715 2.68975,10.17114 0.34289,1.29965 0.72122,2.48247 0.84074,2.62849 0.14781,0.18058 0.65133,0.24631 1.57417,0.20548 l 1.35687,-0.06 0.10773,-14.58891 c 0.0593,-8.02391 0.12872,-14.61411 0.15438,-14.64489 0.0256,-0.0308 0.43064,-0.47187 0.89999,-0.98022 0.46935,-0.50834 0.80646,-0.97108 0.74915,-1.0283 -0.0573,-0.0572 -1.52865,-0.0785 -3.2696,-0.0472 l -3.1654,0.0569 1.18359,1.2849 1.18361,1.2849 -0.0537,8.57803 c -0.0435,6.93849 -0.10562,8.57802 -0.32525,8.57802 -0.18666,0 -1.02967,-3.02565 -2.69702,-9.6799 -1.33404,-5.32396 -2.49082,-9.78539 -2.57061,-9.9143 -0.15221,-0.24586 -5.69929,-0.34999 -5.9382,-0.11147 -0.0677,0.0676 0.28732,0.62599 0.78895,1.24086 l 0.9121,1.11794 v 13.25412 13.25412 l -0.92619,0.98852 c -0.50938,0.54369 -0.92618,1.09452 -0.92618,1.22407 0,0.16665 0.90793,0.23553 3.10457,0.23553 h 3.10454 z m 16.33461,0.92449 c -2.93701,-1.46115 -4.50222,-5.43313 -5.01308,-12.72147 -0.43746,-6.24107 0.27733,-12.00578 1.89294,-15.26634 1.02774,-2.07414 1.77301,-2.95332 3.01043,-3.55136 1.26146,-0.60965 3.53521,-0.60984 4.91522,-4.1e-4 0.9589,0.42346 0.96001,0.42348 1.48034,0.0149 0.60491,-0.47503 1.34273,-0.53062 1.67871,-0.12647 0.16494,0.19843 0.21837,1.74188 0.17955,5.18831 l -0.0552,4.90586 -0.65624,0.0635 c -0.83128,0.0804 -1.10964,-0.3291 -1.69468,-2.49285 -0.63949,-2.36522 -1.74442,-4.35897 -2.6981,-4.86853 -0.62681,-0.3349 -1.52572,0.24071 -1.92268,1.23116 -0.76592,1.91105 -1.00394,4.24868 -1.10582,10.85958 -0.13588,8.81682 0.25995,11.61979 1.87846,13.30197 0.83095,0.86367 1.50596,1.00851 2.34002,0.50213 0.82891,-0.50326 1.35315,-1.53403 1.88951,-3.71528 0.23412,-0.95208 0.53317,-1.93757 0.66455,-2.18997 0.33087,-0.63563 0.94033,-0.78543 1.42263,-0.34967 0.49479,0.44705 0.53615,2.21311 0.10395,4.43774 -0.74387,3.82862 -2.31349,5.30912 -5.62873,5.30912 -1.32237,0 -1.80523,-0.0957 -2.68176,-0.53183 z m 4.33833,-0.097 c 1.40929,-0.39072 2.71221,-1.8986 3.26891,-3.78314 0.34008,-1.15133 0.57934,-4.49052 0.34216,-4.77582 -0.4855,-0.58405 -0.73386,-0.14801 -1.39073,2.44172 -0.7765,3.06144 -1.74971,4.18239 -3.47848,4.00659 -2.07857,-0.21137 -3.17349,-2.53545 -3.53183,-7.49658 -0.50393,-6.9768 -0.0219,-15.1265 1.06863,-18.06676 0.46705,-1.25926 0.99517,-1.69697 2.04748,-1.69697 1.34387,0 2.57263,1.81545 3.58063,5.2902 0.57006,1.96506 0.99657,2.63897 1.33353,2.107 0.10737,-0.16953 0.19665,-2.26178 0.19837,-4.64946 0.004,-4.81218 -0.0856,-5.17414 -1.08075,-4.39261 -0.62675,0.49218 -1.19553,0.52084 -2.00842,0.10117 -0.83432,-0.43073 -2.81233,-0.6019 -3.81753,-0.33035 -3.37059,0.91057 -5.43918,6.66328 -5.43918,15.12637 0,5.57676 0.69585,9.98297 1.99541,12.63525 1.4028,2.863 4.15201,4.24852 6.9118,3.48339 z m 6.07582,0.47595 c -0.70266,-0.0986 -0.93168,-0.73707 -0.48315,-1.34694 0.18294,-0.24874 0.5611,-0.76645 0.84032,-1.15046 l 0.50772,-0.69818 V 150.3698 137.27183 l -0.96365,-1.07006 c -1.49916,-1.66467 -1.36807,-1.73622 3.30603,-1.80425 3.41476,-0.0497 3.85606,-0.0182 3.97209,0.28367 0.15514,0.40364 -0.40898,1.51889 -1.09262,2.16009 l -0.48806,0.45774 v 13.08393 13.08392 l 0.60386,0.83223 c 0.33214,0.45773 0.70259,0.89315 0.82327,0.9676 0.12068,0.0745 0.21941,0.40732 0.21941,0.73969 0,0.49028 -0.0874,0.60394 -0.46309,0.60236 -0.25468,-7.8e-4 -1.75973,0.0284 -3.34451,0.0653 -1.58479,0.037 -3.13173,0.0322 -3.43762,-0.0107 z m 6.54756,-0.92592 c -0.18495,-0.25428 -0.58987,-0.82558 -0.89983,-1.26957 l -0.56358,-0.80724 0.0243,-13.30638 0.0243,-13.30639 0.7475,-0.87186 c 1.20657,-1.40727 1.19342,-1.41433 -2.63632,-1.41433 -1.86109,0 -3.43307,0.0796 -3.49328,0.17682 -0.0602,0.0973 0.2064,0.49217 0.59247,0.8776 0.38608,0.38543 0.80034,0.95914 0.92059,1.2749 0.25861,0.6791 0.28767,24.73949 0.0318,26.29291 -0.11308,0.68641 -0.3592,1.18824 -0.81101,1.6536 -0.35675,0.36747 -0.64863,0.77931 -0.64863,0.9152 0,0.18281 0.91642,0.24706 3.52399,0.24706 h 3.524 z m 1.69194,0.82191 c -0.67861,-0.54587 -0.59944,-0.95307 0.40015,-2.05826 l 0.97252,-1.07527 1.93259,-11.91771 c 1.06291,-6.55474 2.128,-13.07352 2.36687,-14.48618 l 0.43428,-2.56847 1.90731,-0.0591 c 1.41238,-0.0438 1.93198,0.01 2.00252,0.20547 0.0524,0.14554 1.16389,6.64469 2.46997,14.44257 1.3061,7.79787 2.43014,14.36289 2.49786,14.58891 0.0677,0.22603 0.33064,0.68836 0.58422,1.02739 0.63334,0.84682 0.8126,1.49764 0.51207,1.85916 -0.37878,0.45564 -6.6185,0.43401 -7.0778,-0.0245 -0.48536,-0.48456 -0.40483,-0.75979 0.53383,-1.82441 l 0.85725,-0.97228 -0.22999,-1.471 c -0.12649,-0.80906 -0.3347,-1.95645 -0.46267,-2.54976 l -0.23269,-1.07876 -1.32075,-0.04 c -0.72642,-0.022 -1.62099,-0.0451 -1.98793,-0.0513 l -0.66717,-0.0114 -0.24355,1.64382 c -0.41258,2.7847 -0.35875,3.48327 0.34298,4.45038 0.65264,0.89944 0.7787,1.57353 0.37048,1.98107 -0.34997,0.34938 -5.52632,0.34046 -5.96235,-0.0102 z m 5.67542,-0.5338 c 0.0593,-0.0958 -0.23057,-0.65683 -0.64419,-1.24671 l -0.75203,-1.0725 0.25605,-2.0923 c 0.14083,-1.15077 0.3091,-2.43904 0.37392,-2.86284 l 0.11787,-0.77054 h 2.42962 c 2.7821,0 2.47505,-0.25697 2.94639,2.46573 0.62145,3.58972 0.63649,3.35692 -0.28541,4.42031 -0.45441,0.52417 -0.77327,1.03854 -0.70857,1.14305 0.18052,0.29161 6.26786,0.24554 6.26786,-0.0475 0,-0.1306 -0.22237,-0.52852 -0.49418,-0.88426 -0.27179,-0.35575 -0.5986,-1.01173 -0.72626,-1.45775 -0.12766,-0.446 -1.24688,-6.91361 -2.48716,-14.37245 -1.24029,-7.45884 -2.3045,-13.76958 -2.36493,-14.02385 -0.10089,-0.42468 -0.22654,-0.46233 -1.54273,-0.46233 -1.31725,0 -1.44144,0.0373 -1.53909,0.46233 -0.0584,0.25427 -0.47434,2.72771 -0.92428,5.49652 -0.44993,2.76881 -1.23179,7.57699 -1.73745,10.68485 -0.50567,3.10785 -1.16432,7.17631 -1.46372,9.04101 l -0.54433,3.39039 -0.9333,0.95635 c -0.51333,0.526 -0.87061,1.05767 -0.79395,1.1815 0.16664,0.26918 5.38512,0.31708 5.54987,0.0509 z m 0.12668,-11.07569 c 0.002,-0.31079 0.31524,-2.67581 0.69515,-5.25561 0.62007,-4.21061 0.91168,-5.37886 1.2567,-5.03441 0.11679,0.11661 1.26821,7.65602 1.47734,9.67358 l 0.12247,1.1815 h -1.77804 -1.77802 z m 2.43738,-3.90408 c -0.31967,-2.11899 -0.59788,-4.22257 -0.61827,-4.67462 l -0.037,-0.82191 -0.0844,0.71917 c -0.0464,0.39555 -0.33991,2.49912 -0.65223,4.67463 l -0.56786,3.95544 h 1.27049 1.27049 z"
       id="path50"
       sodipodi:nodetypes="ssssssscsssssssssssssssssssssssssscssssssssssssssssssssssssssssssssssssssssssssssssscsssssssssscssssssssssscssssscccssscssscccsssccsccssssssssssssssscssssscccsssscccsssssscsssssssssccsssssssssssssssssssccsssssssscccsssscsssssssssscsssscccssssssscsscssssssssssscssssssscssssssssssscssssscsssssssscccssssssssscsssssssssssscsssscscscscssssscccssssccssscssssssssscsssssscccsscccsssssscsssssscsssscssssssssssssscccccssssscccssssscssscssssscssscccssscscccssssscscsssscsssssssssssssscssssscccsssssscccssscssssssssscsssssssssssscssssssssssssssssssssscccsssscccssssssssscccssssssssscssscsscsssssssscssssscssssssscsscsssssssssssssscssscsssccccsscsscccscsscsccssscscscsscsssssssssssssscsscccsssccccsccsscccs" />
    <path
       style="fill:#000000;fill-rule:evenodd;stroke-width:1.11523"
       d="m 449.5786,530.16219 c -48.41001,-2.05436 -59.75758,-2.38592 -60.58222,-3.72022 -0.77324,-1.25111 3.25877,-7.99635 12.89841,-19.17094 4.33206,-5.02187 7.96341,-8.77917 7.96341,-9.51835 0,-0.8764 -2.91276,-1.31876 -7.88347,-2.41215 -24.70636,-5.43459 -42.67975,-13.83893 -58.88574,-28.35113 -3.24754,-2.90812 -16.87349,-16.39101 -29.85486,-29.4307 -24.96414,-25.0763 -30.86108,-30.37133 -48.06718,-38.94135 -11.03706,-5.49734 -19.14788,-8.14848 -32.42713,-11.57238 -29.27118,-7.54726 -44.77449,-8.87838 -122.31913,-9.087 -30.293969,-0.0815 -60.515708,-0.0258 -66.738745,-0.32177 l -12.788974,-0.60828 0.165592,-17.30206 0.165591,-17.47592 79.997946,-0.19962 c 85.04526,-0.21222 88.31476,-1.05508 111.96143,-6.4689 16.37334,-3.74862 26.696,-7.33413 41.85885,-14.86139 18.14165,-9.00602 26.90847,-16.02801 48.12308,-37.54958 37.3115,-37.85139 48.4407,-46.45063 73.75252,-53.07315 7.34687,-1.92222 23.32186,-4.16676 27.12443,-4.16676 0.14942,0 -0.4238,-0.12185 -0.4238,-0.90832 0,-0.78646 -5.44565,-5.90386 -12.20769,-13.07207 -6.76205,-7.16822 -12.81625,-14.93979 -12.81625,-15.35758 0,-0.41779 1.452,-2.6433 2.6954,-3.45801 2.27573,-1.49111 10.78893,-0.88974 83.1914,-4.39444 24.4705,-1.18451 29.02497,-2.4743 27.6795,1.28743 -0.32446,0.90714 -4.15532,10.81752 -8.19425,19.47294 -4.03894,8.65542 -12.69589,28.43835 -19.66271,43.85582 -12.35637,27.34447 -17.29375,34.88725 -19.1911,34.82282 -0.5095,-0.0173 -4.286,-6.22553 -7.54219,-12.20225 -11.01475,-20.21747 -10.2762,-20.71054 -29.55332,-20.71054 -13.16542,0 -13.44212,0.47563 -19.55464,3.26066 -13.05701,5.94913 -26.94172,21.11266 -34.98151,36.34859 -8.49722,16.1028 -12.52521,33.24368 -13.2772,60.0791 -0.81459,29.06968 2.19135,48.34854 11.04945,66.99133 4.95329,10.4247 9.05023,15.78627 16.90399,23.97328 12.95225,13.50185 24.03362,19.12419 42.09672,19.87234 13.93143,0.57703 15.02353,0.39798 20.98147,-9.82076 2.47674,-4.24798 6.12377,-11.21902 8.42329,-15.17243 2.88576,-4.96128 5.98581,-8.56947 7.10169,-8.35457 0.97394,0.18757 4.61913,5.13143 6.92923,10.45919 7.55148,17.41598 26.19148,60.31026 29.8128,68.0319 4.53887,9.67811 8.01908,19.5546 7.24139,20.3323 -1.29867,1.29866 -10.6919,0.61249 -51.16548,-1.10508 z"
       id="path1"
       transform="matrix(0.26458333,0,0,0.26458333,-79.985725,55.478994)"
       sodipodi:nodetypes="ssssssssssscccssssssssssssssssssssssssssssss" />
    <path
       style="fill:#000000;fill-rule:evenodd;stroke-width:0.788586"
       d="m 481.7061,419.14422 c -6.54391,-1.89658 -13.09279,-9.27972 -16.69957,-18.64603 -4.84973,-12.59408 -6.23282,-34.83624 -4.39411,-56.57874 1.30091,-15.38301 2.37083,-23.87468 6.52415,-31.88545 4.66788,-9.00322 11.59507,-13.31848 19.24986,-12.62436 4.79403,0.4347 7.88503,0.8634 11.97283,4.6314 4.23534,3.90399 8.58686,9.67973 10.99654,16.92726 3.09763,9.31667 3.97741,18.02165 3.54778,40.29117 -0.36789,19.06953 -2.4636,26.09461 -5.18184,36.74658 -4.04781,15.86212 -15.52722,24.17796 -26.01564,21.13817 z m 8.69285,-12.01011 c 2.96194,-3.0916 4.8225,-10.14106 5.72113,-19.98133 0.92556,-10.13511 0.41848,-57.28467 -0.67749,-63.22865 -2.02154,-10.96378 -3.68065,-14.87301 -8.26809,-15.59598 -2.00109,-0.31537 -1.92454,-0.62405 -3.02983,0.37554 -2.16143,1.95472 -4.41369,5.58886 -5.52412,10.77349 -2.26898,10.5939 -2.90209,60.28484 -0.95166,74.51749 1.53057,11.16887 4.18975,15.30077 9.14865,15.30077 2.08483,0 2.12224,-0.63828 3.58141,-2.16133 z"
       id="path2"
       transform="matrix(0.26458333,0,0,0.26458333,-79.985725,55.478994)"
       sodipodi:nodetypes="sssssssssssssssssss" />
    <path
       style="fill:#000000;fill-rule:evenodd;stroke-width:0.788586"
       d="m 521.6292,418.89162 -2.82935,-0.55483 2.91114,-4.77985 c 1.25118,-2.05432 3.17695,-3.93133 3.64987,-5.52172 0.6446,-2.16775 0.91735,-15.27323 0.93162,-50.20598 0.0105,-25.62878 -0.2141,-47.25446 -0.49904,-48.26956 -0.28493,-1.01511 -1.94541,-2.56206 -3.47744,-4.50023 -1.53203,-1.93816 -3.65488,-5.0806 -3.65488,-5.28311 0,-0.20252 6.89919,-1.0637 12.78139,-1.0637 7.76363,0 11.41627,0.5884 11.94523,1.22575 0.40077,0.48291 5.21401,17.25289 9.84604,35.99157 10.39475,42.05151 8.76887,38.06939 9.87964,38.06939 0.51061,0 -0.26699,0.23908 -0.0279,-0.95629 0.23908,-1.19537 -0.32243,-16.68481 0.26081,-33.76134 l -0.17388,-31.24018 -2.96324,-3.01703 -4.11708,-5.19842 11.84545,-0.4366 c 5.803,-0.21389 12.38424,0.47612 12.58974,0.68165 0.2055,0.2055 -1.3458,2.15314 -2.32032,3.20108 -4.73594,5.09272 -3.54882,-0.50325 -4.60526,60.14059 l -0.21912,55.84609 -4.30338,-0.008 c -5.07497,-0.0119 -8.3883,-0.27979 -8.87684,-1.52023 -0.4586,-1.16441 -7.1154,-25.86227 -16.95998,-64.42246 -8.1451,-31.90352 -6.39298,-18.05477 -6.74743,16.71693 -0.14115,13.84617 0.0658,17.44156 0.24754,25.2094 l 0.33028,14.11819 2.81377,3.88456 3.3354,4.58004 -2.90581,1.04817 c -3.61559,1.30418 -14.38921,0.64191 -17.5506,0.0451 z"
       id="path3"
       transform="matrix(0.26458333,0,0,0.26458333,-79.985725,55.478994)"
       sodipodi:nodetypes="ccsssssssssssscccssssccsssscccscc" />
    <path
       style="fill:#000000;fill-rule:evenodd;stroke-width:0.788586"
       d="m 607.38512,419.45475 c -4.20771,-0.10512 -8.62575,-0.17657 -9.51733,-0.38417 -1.60295,-0.37325 -1.22405,-2.06843 1.26924,-4.8282 1.3868,-1.53503 3.06635,-3.14709 3.4318,-4.1083 0.40004,-1.05219 0.7874,-21.51915 0.7874,-51.80502 0,-45.22844 -0.41835,-49.91557 -1.40748,-50.29513 -0.60507,-0.23219 -2.10276,-0.32739 -4.14226,-0.17627 l -2.48887,0.18442 -1.22262,2.85217 c -0.84323,1.96713 -2.6118,7.64725 -4.00916,11.85496 -1.39737,4.20771 -4.01186,9.22635 -4.38243,9.80013 -0.4457,0.69009 -1.34044,-5.66557 -1.42211,-16.13155 l -0.13355,-17.11332 26.18451,-0.12295 26.55335,0 -0.27592,8.74636 c -0.13569,4.30149 0.21243,11.74513 -0.21425,16.12975 l -0.98337,10.14968 -4.90847,-11.84429 c -2.2263,-5.3721 -3.72087,-11.34587 -4.52338,-12.5399 -1.31221,-1.95239 -1.82897,-0.71468 -5.27118,-1.76545 l -2.88995,-0.14774 -0.41965,51.20384 1.42454,51.69562 2.19887,3.30406 c 2.46451,3.70323 3.56847,4.77661 0.96844,4.77661 -1.11627,0 -4.22912,0.51741 -4.73855,0.62379 -0.50944,0.10642 -4.36892,0.046 -8.57663,-0.0595 z"
       id="path4"
       transform="matrix(0.26458333,0,0,0.26458333,-79.985725,55.478994)"
       sodipodi:nodetypes="csssssscsssscccsscssscccssscc" />
    <path
       style="fill:#000000;fill-rule:evenodd;stroke-width:0.788586"
       d="m 642.50168,418.76619 c 0,-0.29451 1.46854,-3.25768 3.00148,-4.99881 l 2.7624,-3.13757 0.41937,-50.79712 0.0934,-50.7102 -3.3339,-3.42287 c -1.97508,-2.02777 -4.39889,-5.16913 -4.39889,-5.44399 0,-0.27486 7.07226,-0.95617 14.14886,-0.95617 10.38095,0 14.34447,0.22609 14.34447,0.98879 0,0.51992 -1.76312,3.98821 -3.60785,5.38809 l -2.76023,3.117 -0.33074,48.40365 c -0.21225,31.06199 0.43106,49.981 0.88652,51.96805 0.4264,1.86024 2.0773,3.67282 3.36944,5.01014 1.19565,1.23746 2.19592,3.61951 1.90407,3.91213 -0.70242,0.70425 -26.49836,1.36967 -26.49836,0.67888 z"
       id="path5"
       transform="matrix(0.26458333,0,0,0.26458333,-79.985725,55.478994)"
       sodipodi:nodetypes="sscccssssscsssss" />
    <path
       style="fill:#000000;fill-rule:evenodd;stroke-width:0.788586"
       d="m 677.79777,419.71637 -2.78197,-0.82806 3.47746,-4.75065 3.60784,-3.62047 0.24846,-50.12776 -0.0311,-49.04788 -3.22451,-5.65156 -3.87655,-5.95584 12.08243,-0.36603 c 6.73246,-0.20395 11.99734,-0.0133 12.43069,0.42013 1.009,1.009 13.70742,50.32088 18.13955,70.83581 1.17418,5.43486 -0.63001,5.2023 0.75666,3.18367 0.4185,-0.60923 1.45104,-10.93498 1.43457,-31.67047 l -1.13355,-34.03551 -3.45592,-3.3334 -3.94772,-5.30055 11.25946,-0.1937 c 10.93314,-0.18809 14.61016,0.56798 12.1807,3.16141 -3.11332,3.32346 -4.55772,5.29823 -5.11726,52.5683 -0.29431,24.86374 -0.0182,48.31708 -0.28089,53.32539 l -0.54928,10.47077 -4.86105,0.2926 c -5.81847,0.35024 -6.60646,0.42293 -8.8232,-7.37936 -5.27824,-18.57784 -13.44028,-51.34842 -16.89798,-64.70753 -6.41773,-24.79545 -5.96676,-23.78289 -6.26236,16.03031 -0.12696,17.099 0.0704,34.93464 0.33234,39.63477 0.45862,8.22969 0.86787,8.19454 3.14319,11.50228 1.29948,1.8891 3.5472,2.93473 3.27552,3.78204 -0.3502,1.09216 -2.95176,1.50695 -6.45319,1.75549 -7.03801,0.49957 -9.69403,2.28633 -12.4989,-0.0377 z"
       id="path6"
       transform="matrix(0.26458333,0,0,0.26458333,-79.985725,55.478994)"
       sodipodi:nodetypes="ccccccccssssscccsssscsssssssssc" />
    <path
       style="fill:#000000;fill-rule:evenodd;stroke-width:0.788586"
       d="m 760.71185,418.04002 c -4.06667,-2.02651 -9.54757,-7.44607 -11.76454,-11.79169 -2.73133,-5.35384 -5.6642,-18.39791 -6.46196,-29.27205 -0.89802,-12.24102 0.01,-37.70183 1.43698,-45.22538 2.10307,-11.08644 6.2182,-21.64862 11.33822,-27.12234 4.92058,-5.26049 12.33753,-6.78609 21.14524,-3.82945 6.25544,2.09989 5.00533,2.11906 8.62425,0.61032 l 4.37485,-1.82388 1.08365,3.40185 c 1.18534,3.72103 -0.61741,33.7646 -1.47605,34.62319 -0.87286,0.87286 -3.63515,-3.06665 -5.45239,-8.7311 -4.88289,-15.22025 -9.26978,-21.76263 -15.17464,-20.8044 -3.22453,0.52327 -3.74936,1.16432 -5.62935,5.53446 -3.65841,8.50422 -5.00196,13.65542 -5.00616,45.61066 -0.004,30.03434 1.24912,34.2488 3.729,42.27773 1.87863,6.0823 3.18977,8.06268 7.63384,8.06268 3.92345,0 4.72845,-1.40645 7.40941,-6.43209 1.54,-2.88683 2.43751,-3.34228 2.6459,-17.84029 l -0.6405,-14.85253 -3.72983,-4.02519 c -2.78093,-3.00115 -4.08653,-5.39874 -3.392,-5.83907 1.04866,-0.66485 22.88226,-0.77611 25.26845,-0.13664 0.86067,0.23065 1.41117,1.39967 1.41117,1.6962 0,0.29654 -0.7985,2.80977 -2.73012,4.51192 l -3.25265,2.86625 -0.36884,24.29086 c -0.27295,17.97613 0.5262,24.78265 -0.0646,24.78265 -0.44123,0 -4.06941,0.19407 -6.10914,-0.77087 -3.99279,-1.8889 -4.03778,-2.20055 -9.10595,0.095 -4.20565,1.90488 -11.35717,2.31836 -15.74226,0.13319 z"
       id="path7"
       transform="matrix(0.26458333,0,0,0.26458333,-79.985725,55.478994)"
       sodipodi:nodetypes="ssssssscsssssssssscssssscsssss" />
    <path
       style="fill:#000000;fill-rule:evenodd;stroke-width:0.788586"
       d="m 807.28917,419.30546 c -1.6257,-0.14642 -3.87364,-0.36401 -4.47721,-0.7897 -0.54527,-0.38456 1.01971,-3.18985 2.60809,-5.06608 l 2.99929,-3.54283 0.62351,-51.14271 -0.37625,-50.44721 -2.48684,-2.84641 c -1.50933,-1.72756 -4.05757,-5.40545 -3.79911,-5.82365 0.32439,-0.52487 9.94284,-0.72327 25.50997,-0.23874 l 22.91011,0.26081 0.43468,17.12642 c 0.23601,9.29913 0.45001,18.9731 -1.44555,19.2129 -2.1229,0.26856 -3.34646,-5.80734 -4.97916,-10.30194 -3.62614,-9.9823 -6.20363,-16.71585 -7.7237,-17.29916 -0.62465,-0.2397 -4.30162,-0.64862 -7.90333,-0.56622 -5.70026,0.1304 -3.04831,-0.52162 -4.81155,-0.39122 l -0.21734,15.88707 c -0.12214,8.9283 0.17156,19.94718 0.0634,24.60293 l 0.54156,7.62917 3.34622,-0.91283 c 2.07688,-0.56656 3.08461,-0.17046 6.0373,-6.34845 2.14222,-4.4822 4.45126,-6.32774 4.9163,-5.17059 0.81211,2.02075 1.75674,34.59174 0.73886,35.1309 -0.70902,0.37557 -4.98439,-3.76111 -6.30859,-7.26786 l -3.56524,-5.99859 -2.86318,-0.77367 -2.64584,0.2261 -0.34474,14.98773 c 0.002,8.53013 0.0755,19.02472 0.19319,23.33359 l 0.19004,6.9549 5.96205,0.13041 c 6.48819,0.14191 6.20672,0.233 8.41878,-1.99954 1.4978,-1.51171 3.21088,-5.5852 6.13774,-12.56227 2.40698,-5.73779 4.5755,-11.21207 5.60207,-11.41762 0.90703,-0.18161 2.23105,7.71103 2.00819,16.95255 l -0.43468,18.02477 -21.34283,0.61744 c -11.1842,0.32356 -21.89052,-0.024 -23.51623,-0.1704 z"
       id="path8"
       transform="matrix(0.26458333,0,0,0.26458333,-79.985725,55.478994)"
       sodipodi:nodetypes="ssscccssscssssscsscsssssccccscssssscss" />
    <path
       style="fill:#000000;fill-rule:evenodd;stroke-width:0.788586"
       d="m 860.92251,419.39268 -2.69076,-1.05408 3.94206,-5.89417 3.20438,-4.11147 -0.0555,-49.6409 0.31336,-48.84175 -3.25264,-3.84203 c -1.76105,-2.08015 -3.43708,-5.74717 -3.43708,-6.12218 0,-0.71779 23.55846,-0.56492 24.27801,0.15826 0.21459,0.21567 4.03326,15.38912 8.63618,33.3431 4.60293,17.95398 7.05445,31.30238 8.10644,32.93354 0.58935,0.91382 1.88053,8.98391 2.96839,-25.88805 l -0.013,-30.61918 -4.43461,-4.42477 -4.49609,-6.02306 13.07804,-0.24589 12.58624,0.24589 -1.67771,3.57238 c -0.55009,1.17132 -1.63089,3.07987 -2.93116,3.47573 l -1.43788,1.99345 -0.49257,19.97412 c -0.28833,11.69224 -0.0787,36.6815 -0.46049,55.29352 l -0.7056,34.3973 -6.32596,0.81153 c -4.9475,0.63469 -5.62859,-0.54959 -7.189,-5.29487 -0.77274,-2.34992 -5.55723,-21.01647 -10.93274,-41.48124 -5.37552,-20.46478 -9.9992,-36.23963 -10.42512,-37.30926 -0.47747,-1.19911 -0.65032,-2.9687 -1.34053,-2.83588 -1.00084,0.1926 -0.0937,1.95625 -0.25729,24.95559 -0.10062,14.14806 0.76763,32.08125 0.57105,39.78498 l 0.81545,13.44653 3.28579,4.83638 c 1.40442,2.06718 2.91695,3.67527 2.91695,3.90907 0,0.55111 -17.11296,0.51912 -19.74952,-0.0558 z"
       id="path9"
       transform="matrix(0.26458333,0,0,0.26458333,-79.985725,55.478994)"
       sodipodi:nodetypes="ccccccsssssscccccsscsscssssssscsscc" />
    <path
       style="fill:#000000;fill-rule:evenodd;stroke-width:0.788586"
       d="m 944.61392,418.51972 c -15.45459,-2.75207 -20.23983,-23.16003 -20.29601,-59.47339 -0.0325,-20.9945 1.79634,-35.02686 6.96001,-45.67873 3.19317,-6.58702 6.23721,-10.48713 10.63695,-12.67961 4.22928,-2.10754 9.87855,-2.05067 15.44842,-0.44305 6.62871,1.91322 6.73302,1.79492 9.63396,0.77785 l 2.31939,-1.92188 1.5535,1.84887 c 1.70635,2.03078 0.75678,34.96052 -0.0802,35.79754 -0.91263,0.91263 -3.9993,-2.46839 -5.91455,-8.65026 -4.44441,-14.3453 -7.32753,-19.89884 -13.2188,-19.90578 -7.84784,-0.009 -10.70295,11.62973 -11.39976,45.03033 -0.58051,27.82549 1.06259,42.66616 5.28651,50.40086 2.41603,4.42415 5.02562,5.93378 9.06618,5.93378 6.52289,0 8.07729,-2.59723 11.62819,-14.95302 1.20924,-4.20771 3.21073,-9.3422 3.59773,-9.81613 2.01085,-2.46263 4.06883,4.07408 2.74544,13.58895 -1.38734,9.97456 -6.78846,18.42448 -13.70543,20.4786 -4.15226,1.23309 -3.56255,1.57028 -7.91515,0.79519 z"
       id="path10"
       transform="matrix(0.26458333,0,0,0.26458333,-79.985725,55.478994)"
       sodipodi:nodetypes="sssssscssscsssssssss" />
    <path
       style="fill:#000000;fill-rule:evenodd;stroke-width:0.788586"
       d="m 982.01118,419.11461 -2.0192,-1.82105 2.09474,-2.88056 c 1.0632,-1.46205 2.45765,-3.07963 2.90122,-4.17294 1.01129,-2.49271 0.77569,-65.32563 0.79041,-87.14865 l 0.0102,-15.17574 -3.13944,-3.04929 c -1.71318,-1.66399 -3.48839,-1.78354 -3.13944,-4.34071 0.23969,-1.75656 26.19979,-1.44719 27.19559,-0.8146 0.6115,0.38846 -0.4527,3.2315 -2.4343,5.629 l -2.7665,2.65233 -0.2608,50.81664 0.1739,50.81663 3.1377,3.61661 3.3985,5.96388 -12.78761,0.16921 c -5.83751,0.0772 -10.29046,0.48986 -11.06854,-0.52161 z"
       id="path11"
       transform="matrix(0.26458333,0,0,0.26458333,-79.985725,55.478994)"
       sodipodi:nodetypes="ccssscsssccccccssc" />
    <path
       style="fill:#000000;fill-rule:evenodd;stroke-width:0.788586"
       d="m 1013.916,419.03864 -1.8407,-1.43771 2.8808,-5.05466 3.8028,-3.39488 6.8732,-43.09924 c 3.8143,-23.91828 7.4168,-48.40136 8.7179,-54.47296 l 2.5823,-12.04992 5.5441,-0.20455 c 3.655,-0.13485 6.4937,0.22892 6.726,0.87991 0.1767,0.49502 4.0364,23.83066 8.6522,51.18078 10.0539,59.57162 9.9291,58.0458 12.4744,62.15288 1.7022,2.74658 1.1258,3.2207 2.2112,4.55442 l -4.58,0.64511 c -4.1188,0.58014 -14.7279,0.11915 -17.4115,-0.0829 l -3.3863,-0.25492 2.9715,-5.13722 c 1.9572,-3.38382 3.4753,-3.55842 2.8138,-6.67076 -1.3195,-6.20864 -2.6552,-17.11679 -3.9496,-18.06823 -0.794,-0.58363 -2.5325,0.0807 -8.2128,-0.50052 l -8.198,0.0615 -0.6795,1.48229 c -0.4465,0.97418 -0.5869,5.3755 -1.6782,10.32931 l -0.6913,8.53967 2.833,4.20388 c 1.4376,2.13329 2.4291,5.89881 2.1607,6.16718 -0.6507,0.65076 -14.9588,3.58519 -17.4194,0.53885 z m 32.4953,-45.56087 c -0.8571,-6.79379 -4.031,-32.38854 -4.8044,-34.45625 -0.7976,-2.13269 -0.3743,-2.13219 -1.293,1.27954 -0.8301,3.08277 -5.3011,34.13203 -5.3011,36.63245 0,1.5341 -0.8786,-0.64808 5.8889,0.53094 l 5.9505,-0.49179 z"
       id="path12"
       transform="matrix(0.26458333,0,0,0.26458333,-79.985725,55.478994)"
       sodipodi:nodetypes="ccccsscsssscsscsssscsscssscssssscs" />
    <path
       style="fill:#000000;fill-rule:evenodd;stroke-width:0.0697018"
       d="m 537.00213,338.97564 c -0.19138,-0.22559 -0.11395,-0.88171 -0.0538,-1.30092 0.0843,-0.58706 0.75034,-0.83316 0.94502,-0.40791 0.26508,0.579 0.22298,1.90131 -0.0892,1.96143 -0.0668,0.0129 -0.43612,0.17874 -0.49782,0.10601 z"
       id="path13"
       transform="matrix(0.26458333,0,0,0.26458333,-79.985725,55.478994)"
       sodipodi:nodetypes="ssssss" />
  </g>
  <g
     inkscape:groupmode="layer"
     id="layer4"
     inkscape:label="Capa 3">
    <text
       xml:space="preserve"
       style="font-style:normal;font-variant:normal;font-weight:bold;font-stretch:normal;font-size:10.5833px;font-family:'Century Gothic';-inkscape-font-specification:'Century Gothic, Bold';font-variant-ligatures:normal;font-variant-caps:normal;font-variant-numeric:normal;font-variant-east-asian:normal;text-align:start;writing-mode:lr-tb;direction:ltr;text-anchor:start;fill:#000000;fill-rule:evenodd;stroke-width:0.3"
       x="23.941748"
       y="165.77052"
       id="text1"><tspan
         sodipodi:role="line"
         id="tspan1"
         style="font-style:normal;font-variant:normal;font-weight:bold;font-stretch:normal;font-size:10.5833px;font-family:'Century Gothic';-inkscape-font-specification:'Century Gothic, Bold';font-variant-ligatures:normal;font-variant-caps:normal;font-variant-numeric:normal;font-variant-east-asian:normal;fill:#000000;stroke-width:0.3"
         x="23.941748"
         y="165.77052">Grupo de Epistemología y Semántica Pragmatista</tspan></text>
  </g>
</svg>
